<svg data-v-7ab44b3a="" width="22" height="24" viewBox="0 0 22 24" fill="none" xmlns="http://www.w3.org/2000/svg"
    style="">
    <path data-v-7ab44b3a=""
        d="M14.5 2.5V6H19.75C20.7165 6 21.5 6.7835 21.5 7.75V11.25C21.5 12.1325 20.8468 12.8624 19.9975 12.9826L21.2146 21.5025C21.3653 22.5568 20.5472 23.5 19.4822 23.5H2.51777C1.45281 23.5 0.634747 22.5568 0.785355 21.5025L2.00248 12.9826C1.1532 12.8624 0.5 12.1325 0.5 11.25V7.75C0.5 6.7835 1.2835 6 2.25 6H7.5V2.5C7.5 1.5335 8.2835 0.75 9.25 0.75H12.75C13.7165 0.75 14.5 1.5335 14.5 2.5ZM18.2322 13H3.76777L2.51777 21.75H5.75V18.25H7.5V21.75H10.125V18.25H11.875V21.75H14.5V18.25H16.25V21.75H19.4822L18.2322 13Z"
        fill="currentColor"></path>
</svg>