<svg width="1em" height="1em" viewBox="0 0 20 20" fill="none" xmlns="http://www.w3.org/2000/svg">
<path fill-rule="evenodd" clip-rule="evenodd" d="M17.5 10C17.5 14.1421 14.1421 17.5 10 17.5C5.85786 17.5 2.5 14.1421 2.5 10C2.5 5.85786 5.85786 2.5 10 2.5C14.1421 2.5 17.5 5.85786 17.5 10ZM18.75 10C18.75 14.8325 14.8325 18.75 10 18.75C5.16751 18.75 1.25 14.8325 1.25 10C1.25 5.16751 5.16751 1.25 10 1.25C14.8325 1.25 18.75 5.16751 18.75 10ZM12.5489 9.37547L10.0934 6.91989L10.9772 6.03601L14.4998 9.55853C14.7438 9.80261 14.7438 10.1983 14.4998 10.4424L10.9804 13.9618L10.0965 13.0779L12.5489 10.6255L5.45213 10.6255L5.45214 9.37545L12.5489 9.37547Z" fill="currentcolor"/>
</svg>
