<svg width="1em" height="1em" viewBox="0 0 20 20" fill="none" xmlns="http://www.w3.org/2000/svg">
  <path fill-rule="evenodd" clip-rule="evenodd"
    d="M2.5 3.75C2.5 3.05965 3.05962 2.5 3.75 2.5H8.125C8.81538 2.5 9.375 3.05965 9.375 3.75V10C9.375 10.6903 8.81538 11.25 8.125 11.25H3.75C3.05962 11.25 2.5 10.6903 2.5 10V3.75ZM3.75 3.75H8.125V10H3.75V3.75Z"
    fill="currentcolor" />
  <path fill-rule="evenodd" clip-rule="evenodd"
    d="M10.625 10C10.625 9.30965 11.1846 8.75 11.875 8.75H16.25C16.9404 8.75 17.5 9.30965 17.5 10V16.25C17.5 16.9403 16.9404 17.5 16.25 17.5H11.875C11.1846 17.5 10.625 16.9403 10.625 16.25V10ZM11.875 10H16.25V16.25H11.875V10Z"
    fill="currentcolor" />
  <path fill-rule="evenodd" clip-rule="evenodd"
    d="M3.75 12.5C3.05962 12.5 2.5 13.0597 2.5 13.75V16.25C2.5 16.9403 3.05962 17.5 3.75 17.5H8.125C8.81538 17.5 9.375 16.9403 9.375 16.25V13.75C9.375 13.0597 8.81538 12.5 8.125 12.5H3.75ZM8.125 13.75H3.75V16.25H8.125V13.75Z"
    fill="currentcolor" />
  <path fill-rule="evenodd" clip-rule="evenodd"
    d="M10.625 3.75C10.625 3.05965 11.1846 2.5 11.875 2.5H16.25C16.9404 2.5 17.5 3.05965 17.5 3.75V6.25C17.5 6.94035 16.9404 7.5 16.25 7.5H11.875C11.1846 7.5 10.625 6.94035 10.625 6.25V3.75ZM11.875 3.75H16.25V6.25H11.875V3.75Z"
    fill="currentcolor" />
</svg>