<svg width="1em" height="1em" viewBox="0 0 20 20" fill="none" xmlns="http://www.w3.org/2000/svg">
<path fill-rule="evenodd" clip-rule="evenodd" d="M14.1485 2.60504L7.96107 8.79252C7.88191 8.87167 7.82547 8.97063 7.79764 9.07905L6.98445 12.2468C6.92951 12.4608 6.99164 12.6879 7.14788 12.8442C7.30411 13.0004 7.53121 13.0625 7.74522 13.0076L10.913 12.1944C11.0214 12.1666 11.1204 12.1101 11.1995 12.031L17.387 5.8435C18.2813 4.94923 18.2813 3.49931 17.387 2.60504C16.4927 1.71076 15.0428 1.71076 14.1485 2.60504ZM8.45793 11.5341L8.96586 9.55549L15.0324 3.48892C15.4386 3.08279 16.097 3.0828 16.5031 3.48892C16.9093 3.89504 16.9093 4.5535 16.5031 4.95962L10.4366 11.0262L8.45793 11.5341Z" fill="currentcolor"/>
<path d="M3.75 4.37493H10V3.12493H3.75C3.05964 3.12493 2.5 3.68457 2.5 4.37493V15.6249C2.5 16.3153 3.05964 16.8749 3.75 16.8749H16.25C16.9404 16.8749 17.5 16.3153 17.5 15.6249V9.37493H16.25V15.6249H3.75V4.37493Z" fill="currentcolor"/>
</svg>
