<svg width="1em" height="1em" viewBox="0 0 20 20" fill="none" xmlns="http://www.w3.org/2000/svg">
<path d="M5 5.3125H10V6.5625H5V5.3125Z" fill="currentcolor"/>
<path fill-rule="evenodd" clip-rule="evenodd" d="M2.5 3.75C2.5 3.05965 3.05962 2.5 3.75 2.5H16.25C16.9404 2.5 17.5 3.05965 17.5 3.75V8.125C17.5 8.81535 16.9404 9.375 16.25 9.375H3.75C3.05962 9.375 2.5 8.81535 2.5 8.125V3.75ZM3.75 3.75H16.25V8.125H3.75V3.75Z" fill="currentcolor"/>
<path d="M10 13.4375H5V14.6875H10V13.4375Z" fill="currentcolor"/>
<path fill-rule="evenodd" clip-rule="evenodd" d="M2.5 11.875C2.5 11.1847 3.05962 10.625 3.75 10.625H16.25C16.9404 10.625 17.5 11.1847 17.5 11.875V16.25C17.5 16.9403 16.9404 17.5 16.25 17.5H3.75C3.05962 17.5 2.5 16.9403 2.5 16.25V11.875ZM16.25 11.875V16.25H3.75V11.875H16.25Z" fill="currentcolor"/>
</svg>
